# xmcd
#
# Track frame offsets:
#       150
#       35694
#       61786
#       89955
#       109784
#       129606
#       151908
#       176166
#       206165
#       225214
#       245073
#       280291
#       307946
#
# Disc length: 4427 seconds
#
# Revision: 1
# Processed by: cddbd v1.5.2PL0 Copyright (c) Steve Scherf et al.
# Submitted via: FreeDbEdit v0.1
#
DISCID=b711490d
DTITLE=Various Artist - World of Trance
DYEAR=2004
DGENRE=
TTITLE0=Hidden Logic - Time
TTITLE1=Marco V - Auto Manual
TTITLE2=Beam - Amun (Cosmic Gate Remix)
TTITLE3=DJ Ton T.B. - Dream Machine (Marco V Remix)
TTITLE4=8 Wonders - The Morning After (Thrillseekers Mix)
TTITLE5=Todd Tobias - Under One (JK Walker Remix)
TTITLE6=Frequence - The Anthem
TTITLE7=Jowan - Thadderack
TTITLE8=Vicious Vic vs. Diego Aguilar - Reset
TTITLE9=Marcel Woods - Static State
TTITLE10=Svenson - Sunlight Theory (O-Zone Mix)
TTITLE11=Choopie and Shmuel - Sun Rising
TTITLE12=Victor Ortiz - Wide Open
EXTD=
EXTT0=
EXTT1=
EXTT2=
EXTT3=
EXTT4=
EXTT5=
EXTT6=
EXTT7=
EXTT8=
EXTT9=
EXTT10=
EXTT11=
EXTT12=
PLAYORDER=
